<svg height="494" width="720" xmlns="http://www.w3.org/2000/svg">
<rect height="494" fill="#555" width="720"></rect>
<text fill="#7f7" font-family="Courier New" font-size="12" xml:space="preserve">
<tspan x="10" y="26">10 megabytes installed</tspan>
<tspan x="10" y="42"></tspan>
<tspan x="10" y="58">node_modules</tspan>
<tspan x="10" y="74">└─┬ mongodb-migrations@0.8.5 </tspan>
<tspan x="10" y="90">  ├── bluebird@3.5.0 </tspan>
<tspan x="10" y="106">  ├── lodash@4.17.4 </tspan>
<tspan x="10" y="122">  ├─┬ mkdirp@0.5.1 </tspan>
<tspan x="10" y="138">  │ └── minimist@0.0.8 </tspan>
<tspan x="10" y="154">  ├─┬ mongodb@2.2.25 </tspan>
<tspan x="10" y="170">  │ ├── es6-promise@3.2.1 </tspan>
<tspan x="10" y="186">  │ ├─┬ mongodb-core@2.1.9 </tspan>
<tspan x="10" y="202">  │ │ ├── bson@1.0.4 </tspan>
<tspan x="10" y="218">  │ │ └─┬ require_optional@1.0.0 </tspan>
<tspan x="10" y="234">  │ │   ├── resolve-from@2.0.0 </tspan>
<tspan x="10" y="250">  │ │   └── semver@5.3.0 </tspan>
<tspan x="10" y="266">  │ └─┬ readable-stream@2.1.5 </tspan>
<tspan x="10" y="282">  │   ├── buffer-shims@1.0.0 </tspan>
<tspan x="10" y="298">  │   ├── core-util-is@1.0.2 </tspan>
<tspan x="10" y="314">  │   ├── inherits@2.0.3 </tspan>
<tspan x="10" y="330">  │   ├── isarray@1.0.0 </tspan>
<tspan x="10" y="346">  │   ├── process-nextick-args@1.0.7 </tspan>
<tspan x="10" y="362">  │   ├── string_decoder@0.10.31 </tspan>
<tspan x="10" y="378">  │   └── util-deprecate@1.0.2 </tspan>
<tspan x="10" y="394">  └─┬ nomnom@1.8.1 </tspan>
<tspan x="10" y="410">    ├─┬ chalk@0.4.0 </tspan>
<tspan x="10" y="426">    │ ├── ansi-styles@1.0.0 </tspan>
<tspan x="10" y="442">    │ ├── has-color@0.1.7 </tspan>
<tspan x="10" y="458">    │ └── strip-ansi@0.1.1 </tspan>
<tspan x="10" y="474">    └── underscore@1.6.0</tspan>
</text>
</svg>
